<svg width="100%" height="100%" xmlns="http://www.w3.org/2000/svg">
  <defs>
    <linearGradient id="gradient" x1="0%" y1="0%" x2="100%" y2="100%">
      <stop offset="0%" stop-color="#2563EB" stop-opacity="0.1" />
      <stop offset="100%" stop-color="#0EA5E9" stop-opacity="0.1" />
    </linearGradient>
    <mask id="mask" x="0" y="0" width="100%" height="100%">
      <rect x="0" y="0" width="100%" height="100%" fill="#fff" />
      <circle cx="10%" cy="10%" r="50" fill="#000" />
      <circle cx="80%" cy="30%" r="70" fill="#000" />
      <circle cx="30%" cy="70%" r="40" fill="#000" />
      <circle cx="70%" cy="80%" r="60" fill="#000" />
    </mask>
  </defs>
  <rect width="100%" height="100%" fill="url(#gradient)" mask="url(#mask)" />
  <g opacity="0.3">
    <circle cx="5%" cy="5%" r="2" fill="#fff" />
    <circle cx="10%" cy="10%" r="1" fill="#fff" />
    <circle cx="15%" cy="20%" r="1.5" fill="#fff" />
    <circle cx="20%" cy="5%" r="1" fill="#fff" />
    <circle cx="25%" cy="15%" r="2" fill="#fff" />
    <circle cx="30%" cy="10%" r="1" fill="#fff" />
    <circle cx="35%" cy="30%" r="1.5" fill="#fff" />
    <circle cx="40%" cy="20%" r="1" fill="#fff" />
    <circle cx="45%" cy="5%" r="1" fill="#fff" />
    <circle cx="50%" cy="15%" r="2" fill="#fff" />
    <circle cx="55%" cy="10%" r="1" fill="#fff" />
    <circle cx="60%" cy="30%" r="1.5" fill="#fff" />
    <circle cx="65%" cy="5%" r="1" fill="#fff" />
    <circle cx="70%" cy="15%" r="2" fill="#fff" />
    <circle cx="75%" cy="10%" r="1" fill="#fff" />
    <circle cx="80%" cy="30%" r="1.5" fill="#fff" />
    <circle cx="85%" cy="20%" r="1" fill="#fff" />
    <circle cx="90%" cy="5%" r="1" fill="#fff" />
    <circle cx="95%" cy="15%" r="2" fill="#fff" />
    <circle cx="5%" cy="35%" r="1" fill="#fff" />
    <circle cx="10%" cy="40%" r="1.5" fill="#fff" />
    <circle cx="15%" cy="45%" r="1" fill="#fff" />
    <circle cx="20%" cy="50%" r="2" fill="#fff" />
    <circle cx="25%" cy="55%" r="1" fill="#fff" />
    <circle cx="30%" cy="60%" r="1.5" fill="#fff" />
    <circle cx="35%" cy="65%" r="1" fill="#fff" />
    <circle cx="40%" cy="70%" r="2" fill="#fff" />
    <circle cx="45%" cy="75%" r="1" fill="#fff" />
    <circle cx="50%" cy="80%" r="1.5" fill="#fff" />
    <circle cx="55%" cy="85%" r="1" fill="#fff" />
    <circle cx="60%" cy="90%" r="2" fill="#fff" />
    <circle cx="65%" cy="95%" r="1" fill="#fff" />
    <circle cx="70%" cy="40%" r="1.5" fill="#fff" />
    <circle cx="75%" cy="45%" r="1" fill="#fff" />
    <circle cx="80%" cy="50%" r="2" fill="#fff" />
    <circle cx="85%" cy="55%" r="1" fill="#fff" />
    <circle cx="90%" cy="60%" r="1.5" fill="#fff" />
    <circle cx="95%" cy="65%" r="1" fill="#fff" />
  </g>
</svg> 