<?xml version="1.0" encoding="UTF-8"?>
<svg width="800px" height="600px" viewBox="0 0 800 600" version="1.1" xmlns="http://www.w3.org/2000/svg" xmlns:xlink="http://www.w3.org/1999/xlink">
    <title>Team Mockup</title>
    <defs>
        <linearGradient x1="0%" y1="0%" x2="100%" y2="100%" id="linearGradient-1">
            <stop stop-color="#3B82F6" offset="0%"></stop>
            <stop stop-color="#1E293B" offset="100%"></stop>
        </linearGradient>
        <linearGradient x1="0%" y1="0%" x2="100%" y2="100%" id="linearGradient-2">
            <stop stop-color="#4F46E5" offset="0%"></stop>
            <stop stop-color="#7C3AED" offset="100%"></stop>
        </linearGradient>
        <rect id="path-3" x="0" y="0" width="800" height="600" rx="20"></rect>
        <filter x="-2.5%" y="-2.5%" width="105.0%" height="106.7%" filterUnits="objectBoundingBox" id="filter-4">
            <feOffset dx="0" dy="10" in="SourceAlpha" result="shadowOffsetOuter1"></feOffset>
            <feGaussianBlur stdDeviation="10" in="shadowOffsetOuter1" result="shadowBlurOuter1"></feGaussianBlur>
            <feColorMatrix values="0 0 0 0 0   0 0 0 0 0   0 0 0 0 0  0 0 0 0.2 0" type="matrix" in="shadowBlurOuter1"></feColorMatrix>
        </filter>
    </defs>
    <g id="Team-Mockup" stroke="none" stroke-width="1" fill="none" fill-rule="evenodd">
        <g id="Background">
            <use fill="black" fill-opacity="1" filter="url(#filter-4)" xlink:href="#path-3"></use>
            <use fill="#FFFFFF" fill-rule="evenodd" xlink:href="#path-3"></use>
        </g>
        
        <!-- Background Pattern -->
        <g id="Background-Pattern" opacity="0.05" transform="translate(0, 0)">
            <path d="M0,0 L800,0 L800,600 L0,600 L0,0 Z" id="Rectangle" fill="#3B82F6"></path>
            <circle id="Circle-1" fill="#4F46E5" cx="100" cy="100" r="80"></circle>
            <circle id="Circle-2" fill="#7C3AED" cx="700" cy="500" r="120"></circle>
            <circle id="Circle-3" fill="#3B82F6" cx="400" cy="300" r="60"></circle>
        </g>
        
        <!-- Team Members -->
        <g id="Team-Members" transform="translate(100, 80)">
            <!-- Person 1 -->
            <g id="Person-1" transform="translate(0, 0)">
                <circle id="Avatar-BG-1" fill="url(#linearGradient-1)" cx="60" cy="60" r="60"></circle>
                <g id="Avatar-1" transform="translate(30, 30)">
                    <circle id="Head-1" fill="#F8FAFC" cx="30" cy="20" r="20"></circle>
                    <path d="M0,60 C0,40 60,40 60,60" id="Body-1" stroke="#F8FAFC" stroke-width="8" stroke-linecap="round"></path>
                </g>
            </g>
            
            <!-- Person 2 -->
            <g id="Person-2" transform="translate(200, 0)">
                <circle id="Avatar-BG-2" fill="url(#linearGradient-2)" cx="60" cy="60" r="60"></circle>
                <g id="Avatar-2" transform="translate(30, 30)">
                    <circle id="Head-2" fill="#F8FAFC" cx="30" cy="20" r="20"></circle>
                    <path d="M0,60 C0,40 60,40 60,60" id="Body-2" stroke="#F8FAFC" stroke-width="8" stroke-linecap="round"></path>
                </g>
            </g>
            
            <!-- Person 3 -->
            <g id="Person-3" transform="translate(400, 0)">
                <circle id="Avatar-BG-3" fill="url(#linearGradient-1)" cx="60" cy="60" r="60"></circle>
                <g id="Avatar-3" transform="translate(30, 30)">
                    <circle id="Head-3" fill="#F8FAFC" cx="30" cy="20" r="20"></circle>
                    <path d="M0,60 C0,40 60,40 60,60" id="Body-3" stroke="#F8FAFC" stroke-width="8" stroke-linecap="round"></path>
                </g>
            </g>
            
            <!-- Person 4 -->
            <g id="Person-4" transform="translate(100, 180)">
                <circle id="Avatar-BG-4" fill="url(#linearGradient-2)" cx="60" cy="60" r="60"></circle>
                <g id="Avatar-4" transform="translate(30, 30)">
                    <circle id="Head-4" fill="#F8FAFC" cx="30" cy="20" r="20"></circle>
                    <path d="M0,60 C0,40 60,40 60,60" id="Body-4" stroke="#F8FAFC" stroke-width="8" stroke-linecap="round"></path>
                </g>
            </g>
            
            <!-- Person 5 -->
            <g id="Person-5" transform="translate(300, 180)">
                <circle id="Avatar-BG-5" fill="url(#linearGradient-1)" cx="60" cy="60" r="60"></circle>
                <g id="Avatar-5" transform="translate(30, 30)">
                    <circle id="Head-5" fill="#F8FAFC" cx="30" cy="20" r="20"></circle>
                    <path d="M0,60 C0,40 60,40 60,60" id="Body-5" stroke="#F8FAFC" stroke-width="8" stroke-linecap="round"></path>
                </g>
            </g>
        </g>
        
        <!-- Connection Lines -->
        <g id="Connections" stroke="#3B82F6" stroke-width="2" stroke-dasharray="5,5" opacity="0.7">
            <path d="M160,140 L300,140" id="Line-1"></path>
            <path d="M320,140 L460,140" id="Line-2"></path>
            <path d="M160,260 L300,260" id="Line-3"></path>
            <path d="M160,140 L160,260" id="Line-4"></path>
            <path d="M300,140 L300,260" id="Line-5"></path>
            <path d="M460,140 L360,260" id="Line-6"></path>
        </g>
        
        <!-- Text Elements -->
        <g id="Text-Elements" transform="translate(100, 360)" fill="#1E293B">
            <rect id="Text-Block-1" fill="#F1F5F9" x="0" y="0" width="600" height="30" rx="5"></rect>
            <rect id="Text-Block-2" fill="#F1F5F9" x="0" y="50" width="500" height="30" rx="5"></rect>
            <rect id="Text-Block-3" fill="#F1F5F9" x="0" y="100" width="550" height="30" rx="5"></rect>
            
            <rect id="Button" fill="url(#linearGradient-1)" x="0" y="160" width="200" height="50" rx="25"></rect>
            <text id="Button-Text" font-family="Arial, sans-serif" font-size="16" font-weight="bold" fill="#FFFFFF" text-anchor="middle" x="100" y="190">
                Conheça nossa equipe
            </text>
        </g>
        
        <!-- Decorative Elements -->
        <g id="Decorations">
            <circle id="Dot-1" fill="#3B82F6" cx="50" cy="50" r="5"></circle>
            <circle id="Dot-2" fill="#4F46E5" cx="750" cy="50" r="8"></circle>
            <circle id="Dot-3" fill="#7C3AED" cx="50" cy="550" r="10"></circle>
            <circle id="Dot-4" fill="#3B82F6" cx="750" cy="550" r="6"></circle>
            
            <path d="M700,100 L750,150" id="Line-Deco-1" stroke="#3B82F6" stroke-width="3" stroke-linecap="round"></path>
            <path d="M700,150 L750,100" id="Line-Deco-2" stroke="#3B82F6" stroke-width="3" stroke-linecap="round"></path>
            
            <path d="M50,450 L100,450" id="Line-Deco-3" stroke="#7C3AED" stroke-width="3" stroke-linecap="round"></path>
            <path d="M75,425 L75,475" id="Line-Deco-4" stroke="#7C3AED" stroke-width="3" stroke-linecap="round"></path>
        </g>
    </g>
</svg> 